# xmcd CD database file
#
# Track frame offsets:
#	150
#	15975
#	32547
#	45675
#	61272
#	85947
#	106497
#	121575
#	140097
#	161997
#	178502
#	201075
#
# Disc length: 2989 seconds
#
# Revision: 5
# Processed by: cddbd v1.5.2PL0 Copyright (c) Steve Scherf et al.
# Submitted via: CDex 1.51
#
DISCID=990bab0c
DTITLE=Hans Theessink - Call Me
DYEAR=1992
DGENRE=Blues
TTITLE0=Late Last Night
TTITLE1=Call Me
TTITLE2=Mabellene
TTITLE3=Lonely Days and Lonely Rights
TTITLE4=Soul Of Song
TTITLE5=Ain't Got No Home
TTITLE6=Rock The Boat
TTITLE7=New Orleans
TTITLE8=The Planet
TTITLE9=Bluesdoctor
TTITLE10=Cuckoo
TTITLE11=Sail On
EXTD=YEAR: 1992
EXTT0=
EXTT1=
EXTT2=
EXTT3=
EXTT4=
EXTT5=
EXTT6=
EXTT7=
EXTT8=
EXTT9=
EXTT10=
EXTT11=
PLAYORDER=
